HIERARCHY
ROOT Hips
{
	OFFSET -0.001795 -0.223333 0.028219
	CHANNELS 6 Xposition Yposition Zposition Zrotation Yrotation Xrotation 
	JOINT LeftUpLeg
	{
		OFFSET 0.069520 -0.091406 -0.006815
		CHANNELS 3 Zrotation Yrotation Xrotation
		JOINT LeftLeg
		{
			OFFSET 0.034277 -0.375199 -0.004496
			CHANNELS 3 Zrotation Yrotation Xrotation
			JOINT LeftFoot
			{
				OFFSET -0.013596 -0.397961 -0.043693
				CHANNELS 3 Zrotation Yrotation Xrotation
				JOINT LeftToe
				{
					OFFSET 0.026358 -0.055791 0.119288
					CHANNELS 3 Zrotation Yrotation Xrotation
					End Site
					{
						OFFSET 0.000000 0.000000 0.000000
					}
				}
			}
		}
	}
	JOINT RightUpLeg
	{
		OFFSET -0.067670 -0.090522 -0.004320
		CHANNELS 3 Zrotation Yrotation Xrotation
		JOINT RightLeg
		{
			OFFSET -0.038290 -0.382569 -0.008850
			CHANNELS 3 Zrotation Yrotation Xrotation
			JOINT RightFoot
			{
				OFFSET 0.015774 -0.398415 -0.042312
				CHANNELS 3 Zrotation Yrotation Xrotation
				JOINT RightToe
				{
					OFFSET -0.025372 -0.048144 0.123348
					CHANNELS 3 Zrotation Yrotation Xrotation
					End Site
					{
						OFFSET 0.000000 0.000000 0.000000
					}
				}
			}
		}
	}
	JOINT Spine
	{
		OFFSET -0.002533 0.108963 -0.026696
		CHANNELS 3 Zrotation Yrotation Xrotation
		JOINT Spine1
		{
			OFFSET 0.005487 0.135180 0.001092
			CHANNELS 3 Zrotation Yrotation Xrotation
			JOINT Spine2
			{
				OFFSET 0.001457 0.052922 0.025425
				CHANNELS 3 Zrotation Yrotation Xrotation
				JOINT Neck
				{
					OFFSET -0.002778 0.213870 -0.042857
					CHANNELS 3 Zrotation Yrotation Xrotation
					JOINT Head
					{
						OFFSET 0.005152 0.064970 0.051349
						CHANNELS 3 Zrotation Yrotation Xrotation
						End Site
						{
							OFFSET 0.000000 0.000000 0.000000
						}
					}
				}
				JOINT LeftShoulder
				{
					OFFSET 0.078845 0.121749 -0.034090
					CHANNELS 3 Zrotation Yrotation Xrotation
					JOINT LeftArm
					{
						OFFSET 0.090977 0.030469 -0.008868
						CHANNELS 3 Zrotation Yrotation Xrotation
						JOINT LeftForeArm
						{
							OFFSET 0.259612 -0.012772 -0.027456
							CHANNELS 3 Zrotation Yrotation Xrotation
							JOINT LeftHand
							{
								OFFSET 0.249234 0.008986 -0.001171
								CHANNELS 3 Zrotation Yrotation Xrotation
								End Site
								{
									OFFSET 0.000000 0.000000 0.000000
								}
							}
						}
					}
				}
				JOINT RightShoulder
				{
					OFFSET -0.081759 0.118833 -0.038615
					CHANNELS 3 Zrotation Yrotation Xrotation
					JOINT RightArm
					{
						OFFSET -0.096012 0.032551 -0.009143
						CHANNELS 3 Zrotation Yrotation Xrotation
						JOINT RightForeArm
						{
							OFFSET -0.253742 -0.013329 -0.021401
							CHANNELS 3 Zrotation Yrotation Xrotation
							JOINT RightHand
							{
								OFFSET -0.255298 0.007772 -0.005559
								CHANNELS 3 Zrotation Yrotation Xrotation
								End Site
								{
									OFFSET 0.000000 0.000000 0.000000
								}
							}
						}
					}
				}
			}
		}
	}
}
MOTION
Frames: 7
Frame Time: 0.050000
-0.035555 0.941388 -0.016113 -2.193170 -28.666741 4.571034 0.312030 0.419193 3.583182 -1.430413 0.754692 -12.597366 3.690768 7.900036 7.415222 0.000000 0.000000 0.000000 -8.314447 1.169838 -10.272783 1.986278 -0.078143 -6.347191 -1.609869 -13.601073 18.068078 0.000000 0.000000 0.000000 -1.526643 0.096917 11.707144 2.993538 -0.706214 8.953623 2.508437 1.822576 3.513352 10.973418 -5.623906 -20.418630 0.000000 0.000000 0.000000 -31.232690 -27.558938 21.473724 -34.870411 -20.309020 0.040910 -1.926792 -55.100301 4.169170 0.000000 0.000000 0.000000 32.263104 36.584358 17.781522 32.973009 22.974840 4.130275 -35.423654 26.566471 -7.745906 0.000000 0.000000 0.000000 
-0.036644 0.940904 -0.015830 -2.226632 -29.277548 4.303981 0.077621 0.517170 4.305445 -1.118513 0.785713 -13.123518 3.738401 7.984336 7.328293 0.000000 0.000000 0.000000 -8.262401 1.165234 -10.145217 1.872933 -0.073885 -6.274830 -1.069207 -12.817678 17.866654 0.000000 0.000000 0.000000 -1.220010 0.050110 11.438531 2.967385 -0.686718 8.725040 2.209443 1.495331 3.520992 11.588180 -6.027603 -20.223947 0.000000 0.000000 0.000000 -31.929158 -27.410756 21.896299 -34.715284 -20.268700 -0.081957 -0.069510 -54.923618 3.195831 0.000000 0.000000 0.000000 32.940642 36.753475 17.704929 32.096122 22.646519 4.049118 -34.800573 27.194781 -7.817967 0.000000 0.000000 0.000000 
-0.036951 0.940615 -0.015727 -2.417756 -29.871029 4.295342 0.077306 0.598056 4.880569 -1.018792 0.833413 -13.669039 3.793366 8.059071 7.618764 0.000000 0.000000 0.000000 -8.227211 1.187467 -10.395700 1.621688 -0.077313 -5.841669 -0.423062 -11.974601 17.910179 0.000000 0.000000 0.000000 -0.862949 0.004100 11.311544 3.123315 -0.723883 8.911426 1.839597 0.928391 3.113159 12.380733 -6.453853 -20.289964 0.000000 0.000000 0.000000 -32.049035 -27.482299 22.300910 -35.081053 -20.534322 -0.046419 1.858878 -54.445332 2.202600 0.000000 0.000000 0.000000 33.494808 36.883934 17.499647 31.421490 22.439449 4.068949 -34.559413 28.147237 -8.111411 0.000000 0.000000 0.000000 
-0.036578 0.940158 -0.015804 -2.494582 -30.570787 4.421097 0.076971 0.636437 5.134160 -1.057556 0.875344 -14.036165 4.148346 8.730761 7.507978 0.000000 0.000000 0.000000 -8.395568 1.227399 -10.722468 1.599693 -0.072967 -5.602335 0.175988 -11.153821 17.839596 0.000000 0.000000 0.000000 -0.359139 -0.063846 10.992432 2.975557 -0.615353 8.826696 1.871823 0.094292 2.995478 12.543527 -6.708838 -19.707301 0.000000 0.000000 0.000000 -32.192230 -27.389227 22.813089 -35.202200 -21.042579 -0.018176 4.078648 -54.425612 1.115448 0.000000 0.000000 0.000000 34.071613 36.975255 17.004792 31.292663 21.888059 4.140777 -34.770171 30.395847 -9.006648 0.000000 0.000000 0.000000 
-0.035735 0.939792 -0.015979 -2.658239 -31.416883 4.424073 0.066700 0.641138 5.129575 -1.122350 0.866339 -13.811206 4.390312 9.202140 7.097575 0.000000 0.000000 0.000000 -8.423328 1.270045 -11.148416 1.619550 -0.069742 -4.948808 0.645136 -10.469274 17.585143 0.000000 0.000000 0.000000 -0.064788 -0.096892 10.832275 3.272452 -0.713383 8.971677 1.976875 -0.298360 2.923757 12.601464 -6.840833 -19.365660 0.000000 0.000000 0.000000 -32.326608 -26.972086 22.887320 -35.296579 -21.398158 0.001579 5.155123 -54.001275 0.589187 0.000000 0.000000 0.000000 34.497071 36.576428 16.265702 31.667130 21.466899 4.263317 -34.447512 32.845646 -9.820900 0.000000 0.000000 0.000000 
-0.034911 0.939642 -0.016082 -2.839951 -32.490135 4.472336 0.136953 0.658376 5.209911 -1.047553 0.864199 -13.719298 5.073724 10.548113 6.848958 0.000000 0.000000 0.000000 -8.550501 1.309535 -11.369571 1.877579 -0.055846 -4.818286 1.323930 -9.640129 17.704609 0.000000 0.000000 0.000000 0.368271 -0.140823 10.817674 3.340207 -0.681810 9.041178 2.209984 -0.654569 2.690582 12.406787 -6.878070 -18.741132 0.000000 0.000000 0.000000 -32.225498 -26.799938 23.087235 -35.286196 -21.355694 -0.074884 7.018776 -54.137024 -0.321187 0.000000 0.000000 0.000000 35.261489 36.473661 15.776166 32.991338 20.247696 4.353517 -33.111046 35.114147 -10.243253 0.000000 0.000000 0.000000 
-0.034351 0.939341 -0.016019 -2.916267 -33.047945 4.272990 0.062916 0.664348 5.215338 -1.029102 0.815640 -13.152741 5.376282 11.196663 6.483556 0.000000 0.000000 0.000000 -8.543397 1.321806 -11.469114 1.763161 -0.055543 -4.427326 1.812140 -9.002202 17.742593 0.000000 0.000000 0.000000 0.526557 -0.150786 10.951567 3.750028 -0.840930 9.331748 2.302377 -0.767359 2.407235 12.057293 -6.760979 -18.316184 0.000000 0.000000 0.000000 -31.844885 -26.637274 22.903863 -35.500345 -21.307249 -0.060767 7.739988 -54.108526 -0.659388 0.000000 0.000000 0.000000 35.736162 36.065742 15.323698 35.019176 19.037891 4.395436 -31.395309 36.359074 -10.128493 0.000000 0.000000 0.000000 
